<svg width="17" height="16" viewBox="0 0 17 16" fill="none" xmlns="http://www.w3.org/2000/svg">
<path d="M14.7891 3.24084L10.7891 13.5742C10.7496 13.6765 10.6853 13.7675 10.6022 13.8391C10.519 13.9107 10.4194 13.9606 10.3124 13.9845C10.2053 14.0083 10.0939 14.0054 9.98822 13.9759C9.88253 13.9465 9.78574 13.8914 9.70645 13.8155L7.45179 11.6588L6.06912 13.0408C6.02247 13.0873 5.96308 13.119 5.89845 13.1318C5.83383 13.1445 5.76686 13.1379 5.70602 13.1126C5.64517 13.0874 5.59317 13.0447 5.55659 12.9899C5.52 12.9351 5.50047 12.8707 5.50045 12.8048V9.79217L2.03979 6.48217C1.95392 6.40002 1.89158 6.29642 1.8592 6.18208C1.82683 6.06775 1.8256 5.94683 1.85565 5.83186C1.8857 5.71689 1.94594 5.61205 2.03012 5.52818C2.1143 5.44431 2.21937 5.38446 2.33445 5.35484L14.0011 2.35484C14.1197 2.32445 14.2444 2.32732 14.3615 2.36312C14.4786 2.39893 14.5836 2.46629 14.6649 2.55781C14.7462 2.64934 14.8008 2.76149 14.8226 2.88198C14.8444 3.00246 14.8326 3.12662 14.7885 3.24084H14.7891ZM13.1671 4.00084L5.85512 8.76817L7.01179 9.87484L13.1671 4.00017V4.00084Z" fill="white"/>
</svg>
