<svg width="20" height="20" viewBox="0 0 20 20" fill="none" xmlns="http://www.w3.org/2000/svg">
<path fill-rule="evenodd" clip-rule="evenodd" d="M12.2508 1.6665C15.0775 1.6665 16.6992 3.06567 16.6992 5.50317V17.6165C16.6992 18.1248 16.4375 18.5823 15.9975 18.8382C15.5592 19.0948 15.0308 19.0998 14.5875 18.8498L9.62083 16.044L4.60833 18.8557C4.39167 18.9773 4.15417 19.039 3.91583 19.039C3.67 19.039 3.42417 18.9732 3.20083 18.8415C2.76167 18.5857 2.5 18.1282 2.5 17.6207V5.35067C2.5 3.009 4.1225 1.6665 6.95167 1.6665H12.2508ZM12.2508 2.9165H6.95167C4.8275 2.9165 3.75 3.73484 3.75 5.35067V17.6207C3.75 17.699 3.795 17.7415 3.8325 17.7632C3.87 17.7865 3.92917 17.8032 3.9975 17.7648L9.31583 14.7815C9.50583 14.6757 9.73833 14.6748 9.92917 14.7823L15.2017 17.7607C15.2708 17.8007 15.33 17.7823 15.3675 17.7598C15.405 17.7373 15.4492 17.6948 15.4492 17.6165L15.4489 5.40821C15.4426 4.69098 15.3038 2.9165 12.2508 2.9165ZM12.6165 7.27359C12.9615 7.27359 13.2415 7.55359 13.2415 7.89859C13.2415 8.24359 12.9615 8.52359 12.6165 8.52359H6.51817C6.17317 8.52359 5.89317 8.24359 5.89317 7.89859C5.89317 7.55359 6.17317 7.27359 6.51817 7.27359H12.6165Z" fill="#A3A3A3"/>
</svg>
