<svg width="12" height="12" viewBox="0 0 12 12" fill="none" xmlns="http://www.w3.org/2000/svg">
<path fill-rule="evenodd" clip-rule="evenodd" d="M7.89675 0.5C8.10375 0.5 8.27175 0.668 8.27175 0.875L8.27198 1.29891C9.00203 1.34896 9.60836 1.59902 10.0375 2.02905C10.506 2.49955 10.7525 3.17605 10.75 3.98755V8.54905C10.75 10.2151 9.692 11.25 7.9895 11.25H3.7605C2.058 11.25 1 10.2006 1 8.51105V3.98655C1 2.41515 1.94353 1.40647 3.48234 1.29908L3.48265 0.875C3.48265 0.668 3.65065 0.5 3.85765 0.5C4.06465 0.5 4.23265 0.668 4.23265 0.875L4.2325 1.2895H7.5215L7.52175 0.875C7.52175 0.668 7.68975 0.5 7.89675 0.5ZM10 4.952H1.75V8.51105C1.75 9.79405 2.464 10.5 3.7605 10.5H7.9895C9.286 10.5 10 9.80705 10 8.54905L10 4.952ZM8.1006 8.09815C8.3076 8.09815 8.4756 8.26615 8.4756 8.47315C8.4756 8.68015 8.3076 8.84815 8.1006 8.84815C7.8936 8.84815 7.7236 8.68015 7.7236 8.47315C7.7236 8.26615 7.8891 8.09815 8.0961 8.09815H8.1006ZM5.88185 8.09815C6.08885 8.09815 6.25685 8.26615 6.25685 8.47315C6.25685 8.68015 6.08885 8.84815 5.88185 8.84815C5.67485 8.84815 5.50485 8.68015 5.50485 8.47315C5.50485 8.26615 5.67035 8.09815 5.87735 8.09815H5.88185ZM3.65845 8.09815C3.86545 8.09815 4.03345 8.26615 4.03345 8.47315C4.03345 8.68015 3.86545 8.84815 3.65845 8.84815C3.45145 8.84815 3.28095 8.68015 3.28095 8.47315C3.28095 8.26615 3.44695 8.09815 3.65395 8.09815H3.65845ZM8.1006 6.1548C8.3076 6.1548 8.4756 6.3228 8.4756 6.5298C8.4756 6.7368 8.3076 6.9048 8.1006 6.9048C7.8936 6.9048 7.7236 6.7368 7.7236 6.5298C7.7236 6.3228 7.8891 6.1548 8.0961 6.1548H8.1006ZM5.88185 6.1548C6.08885 6.1548 6.25685 6.3228 6.25685 6.5298C6.25685 6.7368 6.08885 6.9048 5.88185 6.9048C5.67485 6.9048 5.50485 6.7368 5.50485 6.5298C5.50485 6.3228 5.67035 6.1548 5.87735 6.1548H5.88185ZM3.65845 6.1548C3.86545 6.1548 4.03345 6.3228 4.03345 6.5298C4.03345 6.7368 3.86545 6.9048 3.65845 6.9048C3.45145 6.9048 3.28095 6.7368 3.28095 6.5298C3.28095 6.3228 3.44695 6.1548 3.65395 6.1548H3.65845ZM7.5215 2.0395H4.2325L4.23265 2.5205C4.23265 2.7275 4.06465 2.8955 3.85765 2.8955C3.65065 2.8955 3.48265 2.7275 3.48265 2.5205L3.48238 2.05085C2.36227 2.14495 1.75 2.82393 1.75 3.98655V4.202H10L10 3.98655C10.002 3.36905 9.836 2.88905 9.5065 2.55905C9.21726 2.26895 8.79443 2.0957 8.27218 2.05109L8.27175 2.5205C8.27175 2.7275 8.10375 2.8955 7.89675 2.8955C7.68975 2.8955 7.52175 2.7275 7.52175 2.5205L7.5215 2.0395Z" fill="#787878"/>
</svg>
