<svg width="16" height="16" viewBox="0 0 16 16" fill="none" xmlns="http://www.w3.org/2000/svg">
<path d="M14.6667 12.1665H10C9.72667 12.1665 9.5 11.9398 9.5 11.6665C9.5 11.3932 9.72667 11.1665 10 11.1665H14.6667C14.94 11.1665 15.1667 11.3932 15.1667 11.6665C15.1667 11.9398 14.94 12.1665 14.6667 12.1665Z" fill="#696969"/>
<path d="M3.33398 12.1665H1.33398C1.06065 12.1665 0.833984 11.9398 0.833984 11.6665C0.833984 11.3932 1.06065 11.1665 1.33398 11.1665H3.33398C3.60732 11.1665 3.83398 11.3932 3.83398 11.6665C3.83398 11.9398 3.60732 12.1665 3.33398 12.1665Z" fill="#696969"/>
<path d="M14.666 4.8335H12.666C12.3927 4.8335 12.166 4.60683 12.166 4.3335C12.166 4.06016 12.3927 3.8335 12.666 3.8335H14.666C14.9393 3.8335 15.166 4.06016 15.166 4.3335C15.166 4.60683 14.9393 4.8335 14.666 4.8335Z" fill="#696969"/>
<path d="M6.00065 4.8335H1.33398C1.06065 4.8335 0.833984 4.60683 0.833984 4.3335C0.833984 4.06016 1.06065 3.8335 1.33398 3.8335H6.00065C6.27398 3.8335 6.50065 4.06016 6.50065 4.3335C6.50065 4.60683 6.27398 4.8335 6.00065 4.8335Z" fill="#696969"/>
<path d="M8.66732 14.1665H4.66732C3.52065 14.1665 2.83398 13.4798 2.83398 12.3332V10.9998C2.83398 9.85317 3.52065 9.1665 4.66732 9.1665H8.66732C9.81398 9.1665 10.5007 9.85317 10.5007 10.9998V12.3332C10.5007 13.4798 9.81398 14.1665 8.66732 14.1665ZM4.66732 10.1665C4.07398 10.1665 3.83398 10.4065 3.83398 10.9998V12.3332C3.83398 12.9265 4.07398 13.1665 4.66732 13.1665H8.66732C9.26065 13.1665 9.50065 12.9265 9.50065 12.3332V10.9998C9.50065 10.4065 9.26065 10.1665 8.66732 10.1665H4.66732Z" fill="#696969"/>
<path d="M11.3333 6.8335H7.33333C6.18667 6.8335 5.5 6.14683 5.5 5.00016V3.66683C5.5 2.52016 6.18667 1.8335 7.33333 1.8335H11.3333C12.48 1.8335 13.1667 2.52016 13.1667 3.66683V5.00016C13.1667 6.14683 12.48 6.8335 11.3333 6.8335ZM7.33333 2.8335C6.74 2.8335 6.5 3.0735 6.5 3.66683V5.00016C6.5 5.5935 6.74 5.8335 7.33333 5.8335H11.3333C11.9267 5.8335 12.1667 5.5935 12.1667 5.00016V3.66683C12.1667 3.0735 11.9267 2.8335 11.3333 2.8335H7.33333Z" fill="#696969"/>
</svg>
