<svg width="20" height="20" viewBox="0 0 20 20" fill="none" xmlns="http://www.w3.org/2000/svg">
<path d="M9.99935 19.0082C9.42435 19.0082 8.88268 18.7165 8.49935 18.2082L7.24935 16.5415C7.22435 16.5082 7.12435 16.4665 7.08268 16.4582H6.66602C3.19102 16.4582 1.04102 15.5165 1.04102 10.8332V6.6665C1.04102 2.98317 2.98268 1.0415 6.66602 1.0415H13.3327C17.016 1.0415 18.9577 2.98317 18.9577 6.6665V10.8332C18.9577 14.5165 17.016 16.4582 13.3327 16.4582H12.916C12.8493 16.4582 12.791 16.4915 12.7493 16.5415L11.4993 18.2082C11.116 18.7165 10.5743 19.0082 9.99935 19.0082ZM6.66602 2.2915C3.68268 2.2915 2.29102 3.68317 2.29102 6.6665V10.8332C2.29102 14.5998 3.58268 15.2082 6.66602 15.2082H7.08268C7.50768 15.2082 7.99102 15.4498 8.24935 15.7915L9.49935 17.4582C9.79102 17.8415 10.2077 17.8415 10.4993 17.4582L11.7493 15.7915C12.0244 15.4248 12.4577 15.2082 12.916 15.2082H13.3327C16.316 15.2082 17.7077 13.8165 17.7077 10.8332V6.6665C17.7077 3.68317 16.316 2.2915 13.3327 2.2915H6.66602Z" fill="#1D1D1D"/>
<path d="M14.1673 7.2915H5.83398C5.49232 7.2915 5.20898 7.00817 5.20898 6.6665C5.20898 6.32484 5.49232 6.0415 5.83398 6.0415H14.1673C14.509 6.0415 14.7923 6.32484 14.7923 6.6665C14.7923 7.00817 14.509 7.2915 14.1673 7.2915Z" fill="#1D1D1D"/>
<path d="M10.834 11.4585H5.83398C5.49232 11.4585 5.20898 11.1752 5.20898 10.8335C5.20898 10.4918 5.49232 10.2085 5.83398 10.2085H10.834C11.1757 10.2085 11.459 10.4918 11.459 10.8335C11.459 11.1752 11.1757 11.4585 10.834 11.4585Z" fill="#1D1D1D"/>
</svg>
