<svg width="14" height="15" viewBox="0 0 14 15" fill="none" xmlns="http://www.w3.org/2000/svg">
<path d="M6.99935 13.7707C3.54018 13.7707 0.728516 10.959 0.728516 7.49984C0.728516 4.04067 3.54018 1.229 6.99935 1.229C10.4585 1.229 13.2702 4.04067 13.2702 7.49984C13.2702 10.959 10.4585 13.7707 6.99935 13.7707ZM6.99935 2.104C4.02435 2.104 1.60352 4.52484 1.60352 7.49984C1.60352 10.4748 4.02435 12.8957 6.99935 12.8957C9.97435 12.8957 12.3952 10.4748 12.3952 7.49984C12.3952 4.52484 9.97435 2.104 6.99935 2.104Z" fill="#787878"/>
<path d="M9.16323 9.79253C9.0874 9.79253 9.01156 9.77503 8.94156 9.72836L7.13323 8.64919C6.68406 8.38086 6.35156 7.79169 6.35156 7.27253V4.88086C6.35156 4.64169 6.5499 4.44336 6.78906 4.44336C7.02823 4.44336 7.22656 4.64169 7.22656 4.88086V7.27253C7.22656 7.48253 7.40156 7.79169 7.5824 7.89669L9.39073 8.97586C9.60073 9.09836 9.6649 9.36669 9.5424 9.57669C9.4549 9.71669 9.30906 9.79253 9.16323 9.79253Z" fill="#787878"/>
</svg>
