<svg width="20" height="20" viewBox="0 0 20 20" fill="none" xmlns="http://www.w3.org/2000/svg">
<path d="M17.3586 6.67485L11.9003 2.30819C10.8336 1.45819 9.16696 1.44985 8.10863 2.29985L2.65029 6.67485C1.86696 7.29985 1.39196 8.54985 1.55863 9.53319L2.60863 15.8165C2.85029 17.2249 4.15863 18.3332 5.58363 18.3332H14.417C15.8253 18.3332 17.1586 17.1999 17.4003 15.8082L18.4503 9.52485C18.6003 8.54985 18.1253 7.29985 17.3586 6.67485ZM10.6253 14.9999C10.6253 15.3415 10.342 15.6249 10.0003 15.6249C9.65863 15.6249 9.37529 15.3415 9.37529 14.9999V12.4999C9.37529 12.1582 9.65863 11.8749 10.0003 11.8749C10.342 11.8749 10.6253 12.1582 10.6253 12.4999V14.9999Z" fill="#9247D4"/>
</svg>
