<svg width="14" height="15" viewBox="0 0 14 15" fill="none" xmlns="http://www.w3.org/2000/svg">
<path fill-rule="evenodd" clip-rule="evenodd" d="M6.82665 0.333008C10.4067 0.333008 13.3187 3.24501 13.3187 6.82501C13.3187 8.51404 12.6705 10.0545 11.6098 11.2107L13.6969 13.2935C13.8923 13.4888 13.8929 13.8048 13.6976 14.0001C13.6003 14.0988 13.4716 14.1475 13.3436 14.1475C13.2163 14.1475 13.0883 14.0988 12.9903 14.0015L10.8779 11.895C9.7667 12.7849 8.35777 13.3177 6.82665 13.3177C3.24665 13.3177 0.333984 10.405 0.333984 6.82501C0.333984 3.24501 3.24665 0.333008 6.82665 0.333008ZM6.82665 1.33301C3.79798 1.33301 1.33398 3.79634 1.33398 6.82501C1.33398 9.85367 3.79798 12.3177 6.82665 12.3177C9.85465 12.3177 12.3187 9.85367 12.3187 6.82501C12.3187 3.79634 9.85465 1.33301 6.82665 1.33301Z" fill="#696969"/>
</svg>
