<svg width="21" height="20" viewBox="0 0 21 20" fill="none" xmlns="http://www.w3.org/2000/svg">
<path d="M10.5007 10.6248C7.85898 10.6248 5.70898 8.47484 5.70898 5.83317C5.70898 3.1915 7.85898 1.0415 10.5007 1.0415C13.1423 1.0415 15.2923 3.1915 15.2923 5.83317C15.2923 8.47484 13.1423 10.6248 10.5007 10.6248ZM10.5007 2.2915C8.55065 2.2915 6.95898 3.88317 6.95898 5.83317C6.95898 7.78317 8.55065 9.37484 10.5007 9.37484C12.4507 9.37484 14.0423 7.78317 14.0423 5.83317C14.0423 3.88317 12.4507 2.2915 10.5007 2.2915Z" fill="#1D1D1D"/>
<path d="M17.6585 18.9583C17.3168 18.9583 17.0335 18.675 17.0335 18.3333C17.0335 15.4583 14.1001 13.125 10.5001 13.125C6.90013 13.125 3.9668 15.4583 3.9668 18.3333C3.9668 18.675 3.68346 18.9583 3.3418 18.9583C3.00013 18.9583 2.7168 18.675 2.7168 18.3333C2.7168 14.775 6.20846 11.875 10.5001 11.875C14.7918 11.875 18.2835 14.775 18.2835 18.3333C18.2835 18.675 18.0001 18.9583 17.6585 18.9583Z" fill="#1D1D1D"/>
</svg>
