<svg width="17" height="16" viewBox="0 0 17 16" fill="none" xmlns="http://www.w3.org/2000/svg">
<path d="M4.96615 12.8666L3.13281 12.4666C2.96615 12.4333 2.83281 12.3471 2.73281 12.208C2.63281 12.0693 2.59392 11.9166 2.61615 11.75L2.79948 9.86664L1.54948 8.43331C1.43837 8.31109 1.38281 8.16664 1.38281 7.99997C1.38281 7.83331 1.43837 7.68886 1.54948 7.56664L2.79948 6.13331L2.61615 4.24997C2.59392 4.08331 2.63281 3.93064 2.73281 3.79198C2.83281 3.65286 2.96615 3.56664 3.13281 3.53331L4.96615 3.13331L5.93281 1.49997C6.0217 1.35553 6.14392 1.26109 6.29948 1.21664C6.45503 1.1722 6.61059 1.17775 6.76615 1.23331L8.49948 1.96664L10.2328 1.23331C10.3884 1.17775 10.5439 1.1722 10.6995 1.21664C10.855 1.26109 10.9773 1.35553 11.0661 1.49997L12.0328 3.13331L13.8661 3.53331C14.0328 3.56664 14.1661 3.65286 14.2661 3.79198C14.3661 3.93064 14.405 4.08331 14.3828 4.24997L14.1995 6.13331L15.4495 7.56664C15.5606 7.68886 15.6161 7.83331 15.6161 7.99997C15.6161 8.16664 15.5606 8.31109 15.4495 8.43331L14.1995 9.86664L14.3828 11.75C14.405 11.9166 14.3661 12.0693 14.2661 12.208C14.1661 12.3471 14.0328 12.4333 13.8661 12.4666L12.0328 12.8666L11.0661 14.5C10.9773 14.6444 10.855 14.7389 10.6995 14.7833C10.5439 14.8278 10.3884 14.8222 10.2328 14.7666L8.49948 14.0333L6.76615 14.7666C6.61059 14.8222 6.45503 14.8278 6.29948 14.7833C6.14392 14.7389 6.0217 14.6444 5.93281 14.5L4.96615 12.8666ZM7.33281 9.89997C7.45504 10.0222 7.61059 10.0833 7.79948 10.0833C7.98837 10.0833 8.14392 10.0222 8.26615 9.89997L11.0995 7.06664C11.2328 6.93331 11.2995 6.77486 11.2995 6.59131C11.2995 6.4082 11.2328 6.24997 11.0995 6.11664C10.9661 5.98331 10.8079 5.91664 10.6248 5.91664C10.4413 5.91664 10.2828 5.98331 10.1495 6.11664L7.79948 8.46664L6.83281 7.51664C6.69948 7.39442 6.54126 7.33597 6.35815 7.34131C6.17459 7.34709 6.0217 7.41109 5.89948 7.53331C5.77726 7.65553 5.71615 7.81109 5.71615 7.99997C5.71615 8.18886 5.77726 8.34442 5.89948 8.46664L7.33281 9.89997Z" fill="#9247D5"/>
</svg>
